<svg xmlns="http://www.w3.org/2000/svg" viewBox="0 0 18.15 24.43"><title>Bin-1</title>
<g id="Layer_2" data-name="Layer 2">
<g id="Layer_5" data-name="Layer 5">
<path id="body" d="M2.15,8.23H16a1.1,1.1,0,0,1,.81.36,1.08,1.08,0,0,1,.28.83L15.9,23.48a1,1,0,0,1-.33.68,1,1,0,0,1-.69.28H3.27a1,1,0,0,1-.71-.28,1,1,0,0,1-.33-.68L1.06,9.42a1.14,1.14,0,0,1,.3-.83A1.08,1.08,0,0,1,2.15,8.23Z"/>
<path id="lid" d="M17.09,6.3H1a1,1,0,0,1-.83-.42A1,1,0,0,1,.05,5L.54,3.12a1,1,0,0,1,.8-.69A35.71,35.71,0,0,1,5.52,2a.74.74,0,0,0,.62-.59A3.72,3.72,0,0,1,6.72.36Q7,0,9.07,0t2.32.35a3.34,3.34,0,0,1,.47.8l.23.52a.7.7,0,0,0,.66.38q.52,0,2.15.17t1.9.21a1,1,0,0,1,.8.69L18.1,5a1,1,0,0,1-.15.92A1,1,0,0,1,17.09,6.3Z"/>
</g>
</g></svg>