<svg xmlns="http://www.w3.org/2000/svg" viewBox="0 0 13.89 13.91"><title>Target</title><g id="Layer_2" data-name="Layer 2"><g id="Layer_5" data-name="Layer 5"><path fill="white" d="M7.08,0A6.53,6.53,0,0,1,9.65.55a6.79,6.79,0,0,1,3.7,3.7,7,7,0,0,1,0,5.42,6.79,6.79,0,0,1-3.7,3.7,7,7,0,0,1-5.41,0,6.81,6.81,0,0,1-3.7-3.7A6.56,6.56,0,0,1,0,7.09,7.41,7.41,0,0,1,.35,4.75a6.65,6.65,0,0,1,1-1.91,7.42,7.42,0,0,1,1.5-1.5,6.59,6.59,0,0,1,1.92-1A7.54,7.54,0,0,1,7.08,0Zm4.41,7.5h-.73a.44.44,0,0,1-.42-.2.78.78,0,0,1-.12-.39.49.49,0,0,1,.16-.34.51.51,0,0,1,.38-.16h.74a.76.76,0,0,0,.61-.29.68.68,0,0,0,.14-.66A5.35,5.35,0,0,0,10.84,3,5.41,5.41,0,0,0,8.43,1.63a.69.69,0,0,0-.64.14.73.73,0,0,0-.3.62v.74a.45.45,0,0,1-.2.42.79.79,0,0,1-.38.12.47.47,0,0,1-.33-.16.51.51,0,0,1-.16-.38V2.39a.75.75,0,0,0-.29-.61.74.74,0,0,0-.66-.15A5.41,5.41,0,0,0,3.05,3a5.35,5.35,0,0,0-1.4,2.41.68.68,0,0,0,.14.66.76.76,0,0,0,.61.29h.75a.5.5,0,0,1,.37.16.53.53,0,0,1,.16.38.57.57,0,0,1-.16.39.49.49,0,0,1-.37.16H2.4a.79.79,0,0,0-.61.3.65.65,0,0,0-.14.64,5.36,5.36,0,0,0,1.41,2.41,5.47,5.47,0,0,0,2.4,1.4.71.71,0,0,0,.66-.14.76.76,0,0,0,.29-.62v-.73a.54.54,0,0,1,.53-.54.54.54,0,0,1,.38.16.51.51,0,0,1,.16.38v.73a.79.79,0,0,0,.3.62.68.68,0,0,0,.64.14,5.48,5.48,0,0,0,3.79-3.74.73.73,0,0,0-.12-.69A.76.76,0,0,0,11.49,7.5Z"/></g></g></svg>