<svg xmlns="http://www.w3.org/2000/svg" viewBox="0 0 10.75 10.75"><title>Zoom In</title><g id="Layer_2" data-name="Layer 2"><g id="Layer_5" data-name="Layer 5"><path fill="white" d="M4.08,3.35V.72a.67.67,0,0,1,.21-.5A.72.72,0,0,1,4.79,0H6a.72.72,0,0,1,.51.22.69.69,0,0,1,.21.5V3.35a.73.73,0,0,0,.72.72H10a.68.68,0,0,1,.5.21.71.71,0,0,1,.21.51V6a.71.71,0,0,1-.21.51.69.69,0,0,1-.5.21H7.4a.69.69,0,0,0-.51.22.7.7,0,0,0-.22.51V10a.68.68,0,0,1-.21.5.71.71,0,0,1-.51.21H4.79a.71.71,0,0,1-.51-.21.68.68,0,0,1-.21-.5V7.4a.69.69,0,0,0-.21-.51.7.7,0,0,0-.51-.22H.72A.68.68,0,0,1,.1,6.32.7.7,0,0,1,0,6V4.79a.72.72,0,0,1,.22-.51.68.68,0,0,1,.5-.21H3.35a.73.73,0,0,0,.73-.72Z"/></g></g></svg>